<svg xmlns="http://www.w3.org/2000/svg"  viewBox="0 0 48 48" width="48px" height="48px"><path d="M 24.048828 2 A 1.50015 1.50015 0 0 0 22.998047 2.3847656 C 22.998047 2.3847656 15.490168 9 6.5 9 A 1.50015 1.50015 0 0 0 5 10.5 L 5 22.759766 C 5 29.437814 8.0894135 40.426402 23.417969 46.882812 A 1.50015 1.50015 0 0 0 24.582031 46.882812 C 39.910586 40.426403 43 29.437814 43 22.759766 L 43 10.5 A 1.50015 1.50015 0 0 0 41.5 9 C 32.509832 9 25.001953 2.3847656 25.001953 2.3847656 A 1.50015 1.50015 0 0 0 24.048828 2 z M 24 5.4277344 C 26.062966 7.0863651 32.111257 11.337189 40 11.875 L 40 22.759766 C 40 28.502023 37.793444 37.765684 24 43.826172 C 10.206556 37.765684 8 28.502023 8 22.759766 L 8 11.875 C 15.888743 11.337189 21.937034 7.0863651 24 5.4277344 z M 24 12 C 20.704135 12 18 14.704135 18 18 L 18 20.279297 C 16.263561 20.905096 15 22.559951 15 24.5 L 15 29.5 C 15 31.967501 17.032499 34 19.5 34 L 28.5 34 C 30.967501 34 33 31.967501 33 29.5 L 33 24.5 C 33 22.559951 31.736439 20.905096 30 20.279297 L 30 18 C 30 14.704135 27.295865 12 24 12 z M 24 15 C 25.674135 15 27 16.325865 27 18 L 27 20 L 21 20 L 21 18 C 21 16.325865 22.325865 15 24 15 z M 19.5 23 L 28.5 23 C 29.346499 23 30 23.653501 30 24.5 L 30 29.5 C 30 30.346499 29.346499 31 28.5 31 L 19.5 31 C 18.653501 31 18 30.346499 18 29.5 L 18 24.5 C 18 23.653501 18.653501 23 19.5 23 z M 24 25 A 2 2 0 0 0 24 29 A 2 2 0 0 0 24 25 z"/></svg>